<svg xmlns="http://www.w3.org/2000/svg" viewBox="0 0 400 115.24"><defs><style>.cls-1{fill:#e6ae4c;}</style></defs><g id="Layer_2" data-name="Layer 2"><g id="Layer_1-2" data-name="Layer 1"><path class="cls-1" d="M49.46,115.24H49.4a1.6,1.6,0,0,1-1.54-1.65C49,79.89,49.15,45.7,48.32,12a1.6,1.6,0,0,1,1.56-1.64,1.63,1.63,0,0,1,1.64,1.56c.83,33.78.68,68-.46,101.79A1.6,1.6,0,0,1,49.46,115.24Z"/><path class="cls-1" d="M26,99.49h0a1.6,1.6,0,0,1-1.6-1.6l.1-64.77a1.6,1.6,0,0,1,1.6-1.6h0a1.6,1.6,0,0,1,1.59,1.61l-.1,64.77A1.6,1.6,0,0,1,26,99.49Z"/><path class="cls-1" d="M2.59,83.15A1.59,1.59,0,0,1,1,81.6L0,47.7a1.59,1.59,0,0,1,1.55-1.64A1.56,1.56,0,0,1,3.2,47.61l1,33.89a1.61,1.61,0,0,1-1.56,1.65Z"/><path class="cls-1" d="M73.83,95.26h0a1.61,1.61,0,0,1-1.58-1.63l1-64.16a1.6,1.6,0,0,1,1.6-1.58h0a1.6,1.6,0,0,1,1.58,1.63l-1,64.16A1.59,1.59,0,0,1,73.83,95.26Z"/><path class="cls-1" d="M98.22,82.54h0a1.6,1.6,0,0,1-1.58-1.62L97,46.42a1.57,1.57,0,0,1,1.62-1.58,1.6,1.6,0,0,1,1.58,1.62L99.82,81A1.59,1.59,0,0,1,98.22,82.54Z"/><path class="cls-1" d="M122,73.46h-.07a1.59,1.59,0,0,1-1.53-1.66l.85-22.39a1.6,1.6,0,0,1,1.6-1.54h.06a1.61,1.61,0,0,1,1.54,1.66l-.86,22.39A1.59,1.59,0,0,1,122,73.46Z"/><path class="cls-1" d="M146.23,92.23h-.13a1.59,1.59,0,0,1-1.46-1.72,619.21,619.21,0,0,0,1.77-64.6,1.6,1.6,0,1,1,3.2-.08,623.06,623.06,0,0,1-1.78,64.94A1.61,1.61,0,0,1,146.23,92.23Z"/><path class="cls-1" d="M173.57,81.33A1.6,1.6,0,0,1,172,79.8l-2-44.18A1.6,1.6,0,0,1,171.52,34a1.56,1.56,0,0,1,1.67,1.53l2,44.18a1.6,1.6,0,0,1-1.53,1.67Z"/><path class="cls-1" d="M199.12,109.23a1.6,1.6,0,0,1-1.59-1.57L195.36,9.52a1.6,1.6,0,0,1,1.56-1.64,1.57,1.57,0,0,1,1.64,1.56l2.17,98.15a1.62,1.62,0,0,1-1.57,1.64Z"/><path class="cls-1" d="M225.56,86.09a1.61,1.61,0,0,1-1.6-1.52l-3.05-55a1.6,1.6,0,0,1,3.2-.18l3,55a1.6,1.6,0,0,1-1.51,1.68Z"/><path class="cls-1" d="M248.94,76.09a1.6,1.6,0,0,1-1.59-1.6V37.61a1.6,1.6,0,1,1,3.19,0V74.49A1.6,1.6,0,0,1,248.94,76.09Z"/><path class="cls-1" d="M272.33,71.71h-.06a1.6,1.6,0,0,1-1.54-1.65l.88-23.76a1.6,1.6,0,1,1,3.2.12l-.88,23.75A1.59,1.59,0,0,1,272.33,71.71Z"/><path class="cls-1" d="M299,91.07h-.07a1.6,1.6,0,0,1-1.53-1.67c.93-22,1-44.31.06-66.3a1.6,1.6,0,0,1,3.19-.13c.9,22.08.88,44.48-.06,66.57A1.59,1.59,0,0,1,299,91.07Z"/><path class="cls-1" d="M324.28,107.48h0a1.6,1.6,0,0,1-1.59-1.6l.46-104.29A1.6,1.6,0,0,1,324.74,0h0a1.6,1.6,0,0,1,1.6,1.61l-.46,104.28A1.6,1.6,0,0,1,324.28,107.48Z"/><path class="cls-1" d="M349.94,83.91h0a1.6,1.6,0,0,1-1.56-1.64,563.62,563.62,0,0,0-1.46-58.41,1.6,1.6,0,0,1,3.19-.24,567.13,567.13,0,0,1,1.47,58.74A1.6,1.6,0,0,1,349.94,83.91Z"/><path class="cls-1" d="M378,75.33a1.6,1.6,0,0,1-1.59-1.47l-3.14-37.13A1.61,1.61,0,0,1,374.75,35a1.63,1.63,0,0,1,1.73,1.46l3.14,37.13a1.6,1.6,0,0,1-1.46,1.73Z"/><path class="cls-1" d="M398.4,65.34a1.6,1.6,0,0,1-1.6-1.6V43a1.6,1.6,0,0,1,3.2,0V63.74A1.6,1.6,0,0,1,398.4,65.34Z"/></g></g></svg>